# xmcd CD database file
#
# Track frame offsets:
#	150
#	15928
#	33940
#	55860
#	74195
#	90302
#	113688
#	139312
#	156455
#	174765
#
# Disc length: 2653 seconds
#
# Revision: 0
# Processed by: cddbd v1.5.2PL0 Copyright (c) Steve Scherf et al.
# Submitted via: CDex 1.70beta2
#
DISCID=7b0a5b0a
DTITLE=Tobin James and Damaged Goods - Rules of the Road
DYEAR=2007
DGENRE=Blues
TTITLE0=Love Me in the Morning
TTITLE1=Long Time Running
TTITLE2=Rules of the Road
TTITLE3=I Thought It Was the Blues
TTITLE4=Double-Dealin' Mama
TTITLE5=Blue Sky Lightning
TTITLE6=Lonely Dog Blues
TTITLE7=Join the Party
TTITLE8=My World (It Changed)
TTITLE9=Walking in the Dark
EXTD=YEAR: 2007
EXTT0=
EXTT1=
EXTT2=
EXTT3=
EXTT4=
EXTT5=
EXTT6=
EXTT7=
EXTT8=
EXTT9=
PLAYORDER=
